<svg xmlns="http://www.w3.org/2000/svg" xmlns:xlink="http://www.w3.org/1999/xlink" id="processonSvg1000" viewBox="137.0 224.0 519.0 151.25" width="519.0" height="151.25"><defs id="ProcessOnDefs1001"><marker id="ProcessOnMarker1023" markerUnits="userSpaceOnUse" orient="auto" markerWidth="16.23606797749979" markerHeight="10.550836550532098" viewBox="-1.0 -1.3763819204711736 16.23606797749979 10.550836550532098" refX="-1.0" refY="3.8990363547948754"><path id="ProcessOnPath1024" d="M12.0 3.8990363547948754L0.0 7.798072709589751V0.0Z" stroke="#323232" stroke-width="2.0" fill="#323232" transform="matrix(1.0,0.0,0.0,1.0,0.0,0.0)"/></marker><marker id="ProcessOnMarker1027" markerUnits="userSpaceOnUse" orient="auto" markerWidth="16.23606797749979" markerHeight="10.550836550532098" viewBox="-1.0 -1.3763819204711736 16.23606797749979 10.550836550532098" refX="-1.0" refY="3.8990363547948754"><path id="ProcessOnPath1028" d="M12.0 3.8990363547948754L0.0 7.798072709589751V0.0Z" stroke="#323232" stroke-width="2.0" fill="#323232" transform="matrix(1.0,0.0,0.0,1.0,0.0,0.0)"/></marker></defs><g id="ProcessOnG1002"><path id="ProcessOnPath1003" d="M137.0 224.0H656.0V375.25H137.0V224.0Z" fill="none"/><g id="ProcessOnG1004"><g id="ProcessOnG1005" transform="matrix(1.0,0.0,0.0,1.0,177.0,244.0)" opacity="1.0"><g id="ProcessOnG1007" transform="matrix(1.0,0.0,0.0,1.0,0.0,0.0)"> <g> <path fill="#1E3947" d="M33.279,80H2.716C1.197,80,0,78.795,0,77.283V2.718C0,1.197,1.197,0,2.716,0h30.563 C34.793,0,36,1.197,36,2.718v74.565C36,78.705,34.793,80,33.279,80z"/> <rect x="0.081" y="6.398" fill="#DCE9F7" width="35.919" height="0.884"/> <rect x="0.081" y="69.518" fill="#DCE9F7" width="35.918" height="0.884"/> <rect y="51.126" fill="#1A6684" width="36" height="0.481"/> <g> <rect x="5.2" y="11.68" fill="#236A8E" width="25.751" height="3.119"/> <rect x="5.2" y="15.608" fill="#236A8E" width="25.751" height="3.114"/> <rect x="5.833" y="12.877" fill="#DCE9F7" width="4.648" height="0.966"/> <rect x="5.833" y="16.72" fill="#DCE9F7" width="4.648" height="0.953"/> </g> <g> <rect x="5.2" y="20.642" fill="#236A8E" width="25.751" height="3.121"/> <rect x="5.2" y="24.557" fill="#236A8E" width="25.751" height="3.116"/> <rect x="5.833" y="21.841" fill="#DCE9F7" width="4.648" height="0.956"/> <rect x="5.833" y="25.687" fill="#DCE9F7" width="4.648" height="0.953"/> </g> <g> <rect x="5.2" y="31.277" fill="#236A8E" width="25.751" height="3.114"/> <rect x="5.2" y="35.201" fill="#236A8E" width="25.751" height="3.119"/> <rect x="5.833" y="32.483" fill="#DCE9F7" width="4.648" height="0.957"/> <rect x="5.833" y="36.318" fill="#DCE9F7" width="4.648" height="0.964"/> </g> <path opacity="0.62" fill="#FF466A" enable-background="new " d="M31.675,72.958c0.734,0,1.358,0.604,1.358,1.367 c0,0.744-0.624,1.349-1.358,1.349c-0.738,0-1.363-0.604-1.363-1.349C30.312,73.563,30.937,72.958,31.675,72.958z"/> <path opacity="0.62" fill="#43D190" enable-background="new " d="M26.629,72.958c0.759,0,1.364,0.604,1.364,1.367 c0,0.744-0.605,1.349-1.364,1.349c-0.746,0-1.352-0.604-1.352-1.349C25.277,73.563,25.883,72.958,26.629,72.958z"/> <g> <rect x="2.716" y="52.233" fill="#041323" width="1.36" height="16.405"/> <rect x="4.959" y="52.233" fill="#041323" width="1.358" height="16.405"/> <rect x="7.122" y="52.233" fill="#041323" width="1.358" height="16.405"/> <rect x="9.353" y="52.233" fill="#041323" width="1.363" height="16.405"/> <rect x="11.517" y="52.233" fill="#041323" width="1.358" height="16.405"/> <rect x="13.76" y="52.233" fill="#041323" width="1.358" height="16.405"/> <rect x="15.911" y="52.233" fill="#041323" width="1.366" height="16.405"/> <rect x="18.156" y="52.233" fill="#041323" width="1.376" height="16.405"/> <rect x="20.38" y="52.233" fill="#041323" width="1.377" height="16.405"/> <rect x="22.562" y="52.233" fill="#041323" width="1.349" height="16.405"/> <rect x="24.795" y="52.233" fill="#041323" width="1.365" height="16.405"/> <rect x="26.941" y="52.233" fill="#041323" width="1.374" height="16.405"/> <rect x="29.2" y="52.233" fill="#041323" width="1.349" height="16.405"/> <rect x="31.434" y="52.233" fill="#041323" width="1.378" height="16.405"/> </g> </g>  </g><g id="ProcessOnG1008" transform="matrix(1.0,0.0,0.0,1.0,-20.0,86.875)"><text id="ProcessOnText1009" fill="#000000" font-size="13" x="37.0" y="13.325" font-family="微软雅黑" font-weight="normal" font-style="normal" text-decoration="none" family="微软雅黑" text-anchor="middle" size="13">Host1:x.y.z.2</text></g></g><g id="ProcessOnG1010" transform="matrix(1.0,0.0,0.0,1.0,582.0,244.0)" opacity="1.0"><g id="ProcessOnG1012" transform="matrix(1.0,0.0,0.0,1.0,0.0,0.0)"> <g> <path fill="#1E3947" d="M33.279,80H2.716C1.197,80,0,78.795,0,77.283V2.718C0,1.197,1.197,0,2.716,0h30.563 C34.793,0,36,1.197,36,2.718v74.565C36,78.705,34.793,80,33.279,80z"/> <rect x="0.081" y="6.398" fill="#DCE9F7" width="35.919" height="0.884"/> <rect x="0.081" y="69.518" fill="#DCE9F7" width="35.918" height="0.884"/> <rect y="51.126" fill="#1A6684" width="36" height="0.481"/> <g> <rect x="5.2" y="11.68" fill="#236A8E" width="25.751" height="3.119"/> <rect x="5.2" y="15.608" fill="#236A8E" width="25.751" height="3.114"/> <rect x="5.833" y="12.877" fill="#DCE9F7" width="4.648" height="0.966"/> <rect x="5.833" y="16.72" fill="#DCE9F7" width="4.648" height="0.953"/> </g> <g> <rect x="5.2" y="20.642" fill="#236A8E" width="25.751" height="3.121"/> <rect x="5.2" y="24.557" fill="#236A8E" width="25.751" height="3.116"/> <rect x="5.833" y="21.841" fill="#DCE9F7" width="4.648" height="0.956"/> <rect x="5.833" y="25.687" fill="#DCE9F7" width="4.648" height="0.953"/> </g> <g> <rect x="5.2" y="31.277" fill="#236A8E" width="25.751" height="3.114"/> <rect x="5.2" y="35.201" fill="#236A8E" width="25.751" height="3.119"/> <rect x="5.833" y="32.483" fill="#DCE9F7" width="4.648" height="0.957"/> <rect x="5.833" y="36.318" fill="#DCE9F7" width="4.648" height="0.964"/> </g> <path opacity="0.62" fill="#FF466A" enable-background="new " d="M31.675,72.958c0.734,0,1.358,0.604,1.358,1.367 c0,0.744-0.624,1.349-1.358,1.349c-0.738,0-1.363-0.604-1.363-1.349C30.312,73.563,30.937,72.958,31.675,72.958z"/> <path opacity="0.62" fill="#43D190" enable-background="new " d="M26.629,72.958c0.759,0,1.364,0.604,1.364,1.367 c0,0.744-0.605,1.349-1.364,1.349c-0.746,0-1.352-0.604-1.352-1.349C25.277,73.563,25.883,72.958,26.629,72.958z"/> <g> <rect x="2.716" y="52.233" fill="#041323" width="1.36" height="16.405"/> <rect x="4.959" y="52.233" fill="#041323" width="1.358" height="16.405"/> <rect x="7.122" y="52.233" fill="#041323" width="1.358" height="16.405"/> <rect x="9.353" y="52.233" fill="#041323" width="1.363" height="16.405"/> <rect x="11.517" y="52.233" fill="#041323" width="1.358" height="16.405"/> <rect x="13.76" y="52.233" fill="#041323" width="1.358" height="16.405"/> <rect x="15.911" y="52.233" fill="#041323" width="1.366" height="16.405"/> <rect x="18.156" y="52.233" fill="#041323" width="1.376" height="16.405"/> <rect x="20.38" y="52.233" fill="#041323" width="1.377" height="16.405"/> <rect x="22.562" y="52.233" fill="#041323" width="1.349" height="16.405"/> <rect x="24.795" y="52.233" fill="#041323" width="1.365" height="16.405"/> <rect x="26.941" y="52.233" fill="#041323" width="1.374" height="16.405"/> <rect x="29.2" y="52.233" fill="#041323" width="1.349" height="16.405"/> <rect x="31.434" y="52.233" fill="#041323" width="1.378" height="16.405"/> </g> </g>  </g><g id="ProcessOnG1013" transform="matrix(1.0,0.0,0.0,1.0,-20.0,78.75)"><text id="ProcessOnText1014" fill="#000000" font-size="13" x="37.0" y="13.325" font-family="微软雅黑" font-weight="normal" font-style="normal" text-decoration="none" family="微软雅黑" text-anchor="middle" size="13">Host2: a.b.c.</text><text id="ProcessOnText1015" fill="#000000" font-size="13" x="37.0" y="29.575" font-family="微软雅黑" font-weight="normal" font-style="normal" text-decoration="none" family="微软雅黑" text-anchor="middle" size="13">3</text></g></g><g id="ProcessOnG1016" transform="matrix(1.0,0.0,0.0,1.0,354.0,260.0)" opacity="1.0"><g id="ProcessOnG1018" transform="matrix(1.0,0.0,0.0,1.0,0.0,0.0)"> <path fill="#72ADCE" d="M64.119,21.457c0.015-0.451,0.021-0.863,0.021-1.186c0-5.415-2.107-10.506-5.936-14.334 C54.378,2.108,49.288,0,43.875,0c-4.194,0-8.32,1.428-11.931,4.129c-2.465,1.845-4.536,4.195-6.028,6.807 c-1.636-0.853-3.449-1.297-5.328-1.297c-3.008,0-5.899,1.396-8.141,3.93c-1.496,1.689-2.561,3.748-3.079,5.886 c-2.539,1.004-4.798,2.726-6.439,4.924C1.013,26.946,0,30.002,0,33.215C0,41.368,6.631,48,14.782,48v-0.035h47.954v0.02 C70.05,47.984,76,42.034,76,34.718C76,27.896,70.757,22.194,64.119,21.457z"/>  </g><g id="ProcessOnG1019" transform="matrix(1.0,0.0,0.0,1.0,-20.0,54.875)"><text id="ProcessOnText1020" fill="#000000" font-size="13" x="57.0" y="13.325" font-family="微软雅黑" font-weight="normal" font-style="normal" text-decoration="none" family="微软雅黑" text-anchor="middle" size="13">Internet</text></g></g><g id="ProcessOnG1021"><path id="ProcessOnPath1022" d="M213.0 284.0L243.0 284.0L460.0 284.0L445.2360679774998 284.0" stroke="#323232" stroke-width="2.0" stroke-dasharray="none" fill="none" marker-end="url(#ProcessOnMarker1023)"/></g><g id="ProcessOnG1025"><path id="ProcessOnPath1026" d="M582.0 284.0L552.0 284.0L324.0 284.0L338.7639320225002 284.0" stroke="#323232" stroke-width="2.0" stroke-dasharray="none" fill="none" marker-end="url(#ProcessOnMarker1027)"/></g></g></g></svg>
